# xmcd
#
# Track frame offsets: 
#        150
#        18408
#        41015
#        58721
#        77855
#        98714
#        125515
#        143894
#        173061
#        194137
#        219439
#        236957
#        260037
#
# Disc length: 3713 seconds
#
# Revision: 1
# Processed by: cddbd v1.5.2PL0 Copyright (c) Steve Scherf et al.
# Submitted via: ExactAudioCopy v1.3
#
DISCID=c30e7f0d
DTITLE=Billy Price and Fred Chapellier - Night Work
DYEAR=2009
DGENRE=Blues
TTITLE0=Smart Money
TTITLE1=My Love Comes Tumbling Down
TTITLE2=Night Work
TTITLE3=Dont Let My Baby Ride
TTITLE4=When The Lights Came On
TTITLE5=Love And Happiness
TTITLE6=Who You Re Workin For
TTITLE7=Under The Influence
TTITLE8=The Wrong Woman
TTITLE9=O.V. Wright
TTITLE10=All The Love In The World
TTITLE11=Champagne Blues And Pittsburgh Soul
TTITLE12=Skunk Shuffle
EXTD=YEAR: 2009
EXTT0=
EXTT1=
EXTT2=
EXTT3=
EXTT4=
EXTT5=
EXTT6=
EXTT7=
EXTT8=
EXTT9=
EXTT10=
EXTT11=
EXTT12=
PLAYORDER=
